<svg width="207.000000" height="110.760742" viewBox="0 0 207 110.761" fill="none" xmlns="http://www.w3.org/2000/svg" xmlns:xlink="http://www.w3.org/1999/xlink">
	<desc>
			Created with Pixso.
	</desc>
	<defs/>
	<circle id="Ellipse 1" cx="50.000000" cy="50.000000" r="50.000000" fill="#7A3D1C" fill-opacity="1.000000"/>
	<circle id="Ellipse 1" cx="50.000000" cy="50.000000" r="49.000000" stroke="#FDD486" stroke-opacity="1.000000" stroke-width="2.000000"/>
	<path id="Neapol" d="M100.71 25.14Q100.87 24.9 100.91 24.59L100.91 24.42Q100.91 23.83 100.62 23.53Q100.52 23.43 100.38 23.36Q99.85 23.08 98.66 23.08Q95.51 23.08 92.93 24.2Q91.52 24.8 90.28 25.66Q89.26 26.37 88.35 27.25Q86.35 29.2 84.95 31.82Q83.55 34.43 82.8 37.44Q82.46 38.71 82.05 40.79Q81.64 42.87 81.14 45.51Q80.64 48.14 80.15 51.15Q79.65 54.15 79.16 57.28Q78.66 60.41 78.22 63.47Q77.77 66.53 77.4 69.26Q76.54 66.73 75.48 63.66Q74.42 60.58 73.24 57.26Q72.07 53.95 70.83 50.53Q69.6 47.11 68.44 43.92Q67.28 40.72 66.24 37.88Q65.2 35.05 64.39 32.88Q63.59 30.71 63.09 29.34Q62.6 27.97 62.5 27.73Q62.3 27.26 61.95 27.05Q61.68 26.88 61.3 26.88Q60.93 26.88 60.65 27.04Q60.49 27.13 60.36 27.27Q60.2 27.45 60.11 27.66Q60 27.91 60 28.21L60 28.9Q60 29.92 59.88 32.33Q59.76 34.74 59.25 38.16Q58.74 41.58 57.69 45.83Q56.65 50.09 54.8 54.8Q53.03 59.38 50.69 62.6Q48.34 65.81 45.78 67.96Q43.22 70.12 40.59 71.36Q37.95 72.61 35.58 73.23Q33.2 73.84 31.29 74.01Q29.37 74.18 28.21 74.18Q25.21 74.18 22.56 73.38Q19.91 72.58 17.91 71.11Q16.41 70 15.38 68.56Q15.04 68.08 14.75 67.57Q14.39 66.94 14.15 66.27Q13.58 64.74 13.58 63.01Q13.58 61.66 13.96 60.43Q14.22 59.56 14.66 58.75Q15.06 58.02 15.56 57.36Q16.4 56.25 17.51 55.35Q19.29 53.91 21.6 53.09Q22.93 52.62 24.3 52.42Q25.31 52.27 26.33 52.27Q29.31 52.27 31.39 53.11Q33.48 53.95 34.79 54.97Q36.11 56 36.74 56.87Q37.37 57.74 37.41 57.85Q37.61 58.21 37.92 58.38Q38.19 58.53 38.54 58.53Q38.88 58.53 39.15 58.38Q39.33 58.29 39.48 58.12Q39.75 57.81 39.81 57.46Q39.83 57.35 39.83 57.23Q39.83 56.89 39.7 56.62Q39.63 56.51 39.27 55.97Q38.91 55.42 38.21 54.65Q37.51 53.88 36.43 53.03Q35.36 52.17 33.87 51.44Q32.38 50.7 30.45 50.22Q28.52 49.75 26.09 49.75Q24.35 49.75 22.68 50.11Q21.54 50.35 20.44 50.77Q17.84 51.75 15.81 53.41Q15.71 53.49 15.62 53.57Q14.37 54.63 13.42 55.91Q12.77 56.78 12.27 57.76Q11.76 58.75 11.45 59.8Q11.02 61.31 11.02 62.94Q11.02 65.54 11.94 67.77Q12.11 68.17 12.3 68.56Q12.72 69.4 13.25 70.15Q14.34 71.71 15.89 72.94Q18.2 74.76 21.36 75.76Q24.52 76.75 28.28 76.75Q29.37 76.75 31.43 76.56Q33.48 76.37 36.04 75.69Q38.6 75 41.53 73.65Q44.45 72.3 47.29 69.98Q50.12 67.66 52.7 64.17Q55.28 60.68 57.2 55.76Q58.43 52.55 59.32 49.56Q60.21 46.57 60.8 43.88Q61.4 41.2 61.76 38.86Q62.12 36.52 62.29 34.6Q63.32 37.41 64.67 41.08Q66.02 44.75 67.47 48.77Q68.92 52.79 70.39 56.89Q71.86 60.99 73.11 64.63Q74.36 68.27 75.31 71.18Q76.27 74.08 76.71 75.72Q76.82 76.1 77.07 76.33Q77.13 76.39 77.21 76.44Q77.28 76.49 77.36 76.53Q77.66 76.68 78.05 76.68Q78.28 76.68 78.47 76.6Q78.68 76.51 78.85 76.32Q79.08 76.06 79.18 75.76Q79.22 75.64 79.24 75.52Q79.48 73.16 79.93 69.86Q80.37 66.56 80.9 62.9Q81.43 59.25 82.03 55.45Q82.63 51.66 83.23 48.31Q83.82 44.96 84.35 42.28Q84.88 39.59 85.29 38.16Q86.08 35.29 87.21 33.25Q88.33 31.22 89.6 29.84Q90.86 28.45 92.18 27.63Q93.5 26.81 94.71 26.38Q95.92 25.96 96.93 25.82Q97.94 25.68 98.59 25.68Q99.2 25.68 99.37 25.7Q99.55 25.72 99.61 25.72Q99.84 25.72 100.04 25.65Q100.27 25.57 100.47 25.41Q100.61 25.29 100.71 25.14ZM197.52 68.39Q198.09 67.31 198.46 66.53Q198.6 66.19 198.6 65.98Q198.6 65.79 198.55 65.61Q198.46 65.31 198.24 65.06Q198.09 64.89 197.91 64.79Q197.64 64.65 197.3 64.65Q197.06 64.65 196.85 64.72Q196.73 64.77 196.62 64.84Q196.52 64.89 196.44 64.97Q196.26 65.13 196.14 65.37Q195.69 66.29 194.89 67.81Q194.09 69.33 193.03 70.8Q191.97 72.27 190.7 73.35Q189.59 74.29 188.4 74.41Q188.24 74.42 188.07 74.42Q187.71 74.42 187.36 74.34Q185.8 73.97 184.62 71.94Q183.18 69.47 182.33 65.13Q184.24 61.64 185.92 57.97Q187.59 54.29 188.82 50.6Q190.05 46.91 190.77 43.27Q191.49 39.63 191.49 36.21Q191.49 33.44 191.15 31.53Q190.81 29.61 190.19 28.42Q189.58 27.22 188.67 26.69Q188.45 26.56 188.22 26.47Q187.49 26.16 186.64 26.16Q186.2 26.16 185.79 26.27Q184.86 26.52 184.07 27.32Q182.94 28.49 182.07 30.47Q181.2 32.45 180.57 35.08Q179.94 37.71 179.53 40.65Q179.12 43.59 178.93 46.67Q178.74 49.75 178.74 52.62Q178.74 54.6 178.86 57.16Q178.98 59.73 179.32 62.44Q179.47 63.62 179.67 64.78Q179.62 64.8 179.56 64.84Q179.22 65.02 179.12 65.23Q178.57 66.36 177.97 67.21Q177.37 68.07 176.62 68.61Q176.47 68.72 176.31 68.82Q175.68 69.21 174.95 69.43Q174.02 69.71 172.86 69.71L172.42 69.71Q172.21 69.71 172.01 69.67Q172.28 68.48 172.28 67.38Q172.28 65.3 171.9 63.79Q171.53 62.29 170.9 61.33Q170.26 60.37 169.44 59.93Q169 59.69 168.52 59.58Q168.12 59.49 167.7 59.49Q166.94 59.49 166.33 59.78Q165.7 60.09 165.22 60.72L165.22 60.72Q164.28 61.95 164.28 63.9Q164.28 65.37 164.76 66.66Q165.07 67.5 165.58 68.27Q166.38 69.46 167.44 70.32Q168.12 70.87 168.9 71.28Q168.57 71.94 168.12 72.49Q167.61 73.11 166.93 73.59Q165.65 74.49 163.7 74.49Q162.61 74.49 161.72 74.1Q161.18 73.86 160.73 73.51Q160.44 73.28 160.18 73Q160.15 72.97 160.12 72.94Q159.52 72.26 159.19 71.33Q158.85 70.36 158.85 69.23Q158.85 67.96 159.19 66.94Q159.53 65.91 160.06 65.16Q160.59 64.41 161.21 63.91Q161.82 63.42 162.37 63.14Q162.92 62.87 163.27 62.58Q163.35 62.52 163.41 62.45Q163.63 62.17 163.63 61.71Q163.63 61.28 163.43 61Q163.39 60.94 163.34 60.89Q163.33 60.87 163.31 60.85Q163.02 60.58 162.47 60.58Q161.96 60.58 160.93 61.11Q159.91 61.64 158.88 62.72Q158.03 63.61 157.34 64.89Q157.28 64.93 157.22 64.98Q157.02 65.16 156.9 65.43Q156.08 67.07 155.02 68.82Q153.96 70.56 152.63 71.98Q151.56 73.11 150.29 73.92Q149.97 74.12 149.64 74.3Q149.24 74.52 148.83 74.68Q147.5 75.21 145.96 75.21L145.83 75.21Q147.47 74.05 148.59 71.83Q149.72 69.6 149.72 66.46Q149.72 64.96 149.36 63.64Q149 62.32 148.32 61.37Q147.74 60.56 146.97 60.04Q146.83 59.95 146.68 59.86Q146.39 59.7 146.08 59.58Q145.37 59.32 144.56 59.32Q143.81 59.32 143.14 59.55Q142.72 59.7 142.32 59.95Q141.31 60.58 140.44 61.61Q139.57 62.63 138.78 63.93Q138 65.23 137.21 66.56L137.21 56.07Q137.21 55.75 137.09 55.5Q136.99 55.31 136.84 55.16Q136.64 54.97 136.4 54.88Q136.19 54.8 135.95 54.8Q135.65 54.8 135.4 54.92Q135.19 55.01 135.02 55.18Q134.81 55.39 134.72 55.65Q134.65 55.84 134.65 56.07Q134.65 56.1 134.61 56.85Q134.58 57.61 134.36 58.89Q134.14 60.17 133.69 61.86Q133.32 63.28 132.68 64.83Q132.67 64.84 132.65 64.85Q132.56 64.91 132.48 64.98Q132.28 65.16 132.15 65.43Q131.85 66.08 131.4 66.97Q130.96 67.86 130.38 68.82Q129.8 69.77 129.09 70.71Q128.39 71.65 127.62 72.39Q126.86 73.12 126.05 73.57Q125.31 73.98 124.55 74.01Q124.49 74.01 124.43 74.01Q123.58 74.01 122.98 73.63Q122.68 73.44 122.45 73.16Q121.73 72.3 121.37 71.14Q121.01 69.98 120.91 68.8Q120.81 67.62 120.77 66.97Q120.76 66.81 120.71 66.67Q120.62 66.37 120.38 66.12Q120.15 65.88 119.88 65.79Q119.72 65.74 119.54 65.74Q119.25 65.74 119.01 65.84Q118.82 65.92 118.65 66.07Q118.44 66.25 118.33 66.47Q118.24 66.66 118.21 66.87Q117.97 68.65 117.37 69.95Q116.77 71.24 116.04 72.1Q115.3 72.95 114.5 73.36Q113.7 73.77 113.08 73.77Q112.23 73.77 111.65 73.43Q111.24 73.19 110.95 72.86Q110.83 72.71 110.72 72.54Q110.69 72.5 110.67 72.45Q110.37 71.94 110.24 71.33Q110.11 70.66 110.11 70.01Q110.11 67.93 110.77 66.41Q111.44 64.89 112.43 63.88Q113.42 62.87 114.62 62.39Q115.82 61.91 116.88 61.91Q117.59 61.91 118.16 62.07Q118.72 62.22 119.13 62.43Q119.54 62.63 119.78 62.82Q120.02 63.01 120.09 63.08Q120.26 63.25 120.46 63.34Q120.71 63.45 121.01 63.45Q121.22 63.45 121.4 63.39Q121.68 63.29 121.9 63.06Q122.13 62.82 122.22 62.54Q122.28 62.35 122.28 62.15Q122.28 62.1 122.27 62.04Q122.23 61.62 121.9 61.23Q121.87 61.2 121.52 60.9Q121.18 60.61 120.55 60.27Q119.92 59.93 119.03 59.64Q118.14 59.35 117.08 59.35Q115.51 59.35 113.82 60.03Q113.74 60.06 113.67 60.09Q112.06 60.78 110.72 62.08Q109.58 63.2 108.77 64.75Q108.69 64.79 108.6 64.84Q108.57 64.86 108.53 64.89Q108.28 65.07 108.13 65.4Q107.41 67.01 106.52 68.61Q105.63 70.22 104.5 71.52Q103.37 72.82 102.01 73.62Q101.59 73.86 101.15 74.03Q100.13 74.42 98.96 74.42Q97.32 74.42 96.2 73.82Q95.4 73.4 94.81 72.79Q94.56 72.53 94.35 72.24Q95.47 71.69 96.46 70.98Q96.66 70.84 96.85 70.7Q98.01 69.81 98.85 68.75Q99.48 67.95 99.91 67.05Q100.04 66.76 100.16 66.46Q100.2 66.37 100.23 66.28Q100.64 65.13 100.64 63.83Q100.64 62.73 100.26 61.88Q99.89 61.02 99.27 60.43Q98.84 60.01 98.34 59.72Q98.12 59.6 97.89 59.5Q97.22 59.22 96.53 59.18Q96.43 59.18 96.33 59.18Q95.41 59.18 94.59 59.47Q94.23 59.6 93.89 59.79Q93.73 59.88 93.57 59.98Q92.66 60.57 91.98 61.5Q91.17 62.6 90.74 64.07Q90.32 65.54 90.32 67.28Q90.32 69.02 90.83 70.77Q91.24 72.17 92.01 73.34Q92.2 73.63 92.4 73.89Q92.57 74.11 92.75 74.31Q93.72 75.41 95.1 76.15Q96.74 77.02 99 77.02Q100.19 77 101.3 76.68Q103.46 76.06 105.31 74.32Q106.51 73.19 107.63 71.58Q107.72 72.13 107.9 72.65Q108.3 73.77 109.01 74.61Q109.3 74.94 109.63 75.22Q110.14 75.63 110.76 75.91Q111.78 76.37 113.05 76.37Q114.65 76.37 116.26 75.23Q117.87 74.08 119.03 72.13Q119.53 73.71 120.54 74.84Q120.75 75.09 120.99 75.31Q121.5 75.78 122.09 76.08Q123.08 76.58 124.33 76.58Q124.91 76.58 125.46 76.46Q126.25 76.3 126.99 75.91Q128.26 75.24 129.35 74.22Q129.53 74.05 129.71 73.87Q130.59 72.99 131.33 71.96Q132.22 70.73 132.89 69.6Q133.56 68.48 133.98 67.6Q134.13 67.3 134.24 67.07Q134.46 66.95 134.65 66.73Q134.65 67.83 134.63 68.99Q134.61 70.15 134.61 71.35Q132.43 75.62 130.62 80.13Q128.8 84.64 127.49 88.93Q126.17 93.22 125.45 97.05Q124.74 100.88 124.74 103.78Q124.74 106.07 125.18 107.44Q125.63 108.81 126.27 109.54Q126.92 110.28 127.68 110.52Q128.43 110.76 129.01 110.76Q129.98 110.76 130.8 110.4Q131.56 110.07 132.19 109.42Q133.49 108.09 134.38 105.61Q135.26 103.13 135.78 99.65Q136.29 96.16 136.58 91.85Q136.87 87.55 136.99 82.52Q137.11 77.5 137.18 71.96Q138.1 70.29 139.01 68.51Q139.91 66.73 140.84 65.26Q141.76 63.79 142.7 62.84Q143.64 61.88 144.56 61.88Q144.97 61.88 145.42 62.14Q145.86 62.39 146.25 62.94Q146.64 63.49 146.9 64.36Q147.16 65.23 147.16 66.46Q147.16 68.13 146.73 69.5Q146.3 70.87 145.62 71.83Q144.94 72.78 144.08 73.29Q143.23 73.81 142.37 73.81Q141.98 73.81 141.66 73.66Q141.59 73.63 141.52 73.59Q141.14 73.36 140.87 73.09Q140.56 72.75 140.32 72.34Q140.22 72.18 140.09 72.06Q139.96 71.93 139.81 71.83Q139.78 71.83 139.74 71.79Q139.6 71.72 139.5 71.72Q139.47 71.72 139.45 71.71Q139.43 71.69 139.4 71.69Q139.33 71.65 139.16 71.65L139.06 71.65Q138.96 71.66 138.87 71.69Q138.57 71.76 138.31 72Q138.27 72.03 138.24 72.05Q138.2 72.06 138.17 72.13Q137.96 72.39 137.89 72.69Q137.86 72.82 137.86 72.95Q137.86 73.05 137.88 73.14Q137.92 73.38 138.07 73.6Q138.07 73.67 138.14 73.74Q138.34 74.12 138.68 74.54Q139.02 74.97 139.5 75.35Q140.01 75.82 140.59 76.19Q141.47 76.76 142.51 77.11Q143.25 77.35 144.02 77.49Q145.01 77.67 146.03 77.67Q148.31 77.67 150.22 76.83Q150.4 76.75 150.58 76.66Q151.5 76.21 152.35 75.63Q153.37 74.93 154.27 74.05Q154.48 73.84 154.68 73.63Q155.69 72.58 156.53 71.37Q156.65 71.88 156.83 72.35Q157.34 73.67 158.23 74.63Q158.3 74.71 158.37 74.78Q158.71 75.13 159.1 75.43Q159.82 75.99 160.69 76.35Q162.03 76.92 163.63 76.92Q165 76.92 166.16 76.54Q167.32 76.17 168.26 75.52Q168.88 75.09 169.4 74.57Q169.67 74.3 169.92 74Q170.07 73.82 170.2 73.64Q170.74 72.92 171.15 72.1Q171.8 72.24 172.66 72.24Q174.26 72.27 175.56 71.86Q176.86 71.45 177.9 70.75Q178.83 70.13 179.54 69.31Q179.63 69.21 179.71 69.11Q180.08 68.66 180.4 68.2Q181.01 70.56 181.95 72.44Q182.98 74.49 184.45 75.76Q185.01 76.24 185.67 76.54Q186.71 77.02 187.97 77.02Q188.77 77.02 189.51 76.82Q190.01 76.68 190.48 76.46Q191.66 75.89 192.7 74.99Q193.75 74.08 194.63 72.94Q195.52 71.79 196.24 70.63Q196.96 69.47 197.52 68.39ZM181.44 56.99Q181.34 54.97 181.34 52.79Q181.34 49.92 181.53 47.01Q181.71 44.11 182.04 41.44Q182.36 38.77 182.84 36.45Q183.32 34.12 183.9 32.42Q184.48 30.71 185.15 29.72Q185.79 28.76 186.48 28.73Q186.51 28.72 186.53 28.72Q186.7 28.72 186.85 28.76Q187.72 28.99 188.28 30.47Q188.93 32.21 188.93 36.24Q188.93 39.12 188.33 42.28Q187.73 45.44 186.74 48.63Q185.75 51.83 184.45 54.96Q183.15 58.08 181.71 60.85Q181.54 59.01 181.44 56.99ZM95.26 68.89Q94.38 69.57 93.33 70.01Q93.15 69.4 93.03 68.71Q92.91 68.03 92.91 67.42Q92.91 66.42 93.1 65.42Q93.29 64.41 93.7 63.59Q94.11 62.77 94.76 62.25Q94.92 62.13 95.11 62.03Q95.64 61.74 96.33 61.74Q96.59 61.74 96.82 61.82Q97.21 61.94 97.53 62.27L97.53 62.27Q98.04 62.8 98.04 63.83Q98.04 63.95 98.04 64.08Q98 64.87 97.7 65.66Q97.36 66.56 96.74 67.38Q96.13 68.2 95.26 68.89ZM166.98 64.99Q166.81 64.27 166.81 63.62Q166.81 62.6 167.15 62.29Q167.5 61.98 167.7 61.98Q167.84 61.98 167.96 62.02Q168.31 62.11 168.59 62.48Q168.97 62.97 169.22 63.78Q169.48 64.58 169.61 65.54Q169.75 66.49 169.75 67.42Q169.75 68.1 169.65 68.82Q169.13 68.49 168.7 68.07Q168.55 67.91 168.4 67.74Q167.87 67.11 167.51 66.41Q167.15 65.71 166.98 64.99ZM131.52 84.98Q132.87 81.19 134.55 77.43Q134.48 80.51 134.38 83.98Q134.27 87.45 134.05 90.86Q133.83 94.28 133.45 97.41Q133.08 100.54 132.51 102.95Q131.95 105.36 131.13 106.77Q130.44 107.96 129.54 108.15Q129.37 108.19 129.18 108.19Q128.75 108.19 128.44 108Q128.3 107.92 128.19 107.8Q127.81 107.41 127.61 106.83Q127.4 106.24 127.33 105.56Q127.27 104.88 127.27 104.3Q127.27 101.97 127.78 98.9Q128.29 95.82 129.23 92.3Q130.17 88.78 131.52 84.98Z" fill="#FDD486" fill-opacity="1.000000" fill-rule="evenodd"/>
</svg>
